<?xml version="1.0" encoding="UTF-8"?><svg id="uuid-c6a84278-8f3e-486b-b159-7be76c2a9c66" xmlns="http://www.w3.org/2000/svg" xmlns:xlink="http://www.w3.org/1999/xlink" viewBox="0 0 1495.33 371.33"><defs><linearGradient id="uuid-f9cf2a25-4c31-4d35-97a3-602ff7bbf7a3" x1="77.5" y1="77.63" x2="290.91" y2="300.74" gradientUnits="userSpaceOnUse"><stop offset="0" stop-color="#014e9c"/><stop offset=".17" stop-color="#1b65b6"/><stop offset=".38" stop-color="#357dd0"/><stop offset=".5" stop-color="#4087db"/><stop offset=".64" stop-color="#327acd"/><stop offset=".91" stop-color="#0e59a9"/><stop offset=".99" stop-color="#014e9c"/></linearGradient></defs><path d="M327.97,157.97v98.84l-76.27,76.27c-38.88,38.88-101.9,38.88-140.78,0L33.51,255.67c-5.55-5.55-10.31-11.6-14.28-17.99v-104.79c3.97-6.39,8.73-12.44,14.28-17.99L110.92,37.48C149.79-1.4,212.82-1.4,251.7,37.48l39.63,39.63-37.59,37.6-40.52-40.53c-17.62-17.62-46.18-17.62-63.8,0l-75.58,75.58v71.04l75.58,75.58c17.62,17.62,46.18,17.62,63.8,0l60.15-60.16v-23.64h-102.01c-5.75,0-8.62-6.95-4.56-11.01l43.59-43.59h62.98s54.61-.01,54.61-.01Z" fill="url(#uuid-f9cf2a25-4c31-4d35-97a3-602ff7bbf7a3)"/><g><path d="M605.41,182.3v38.55c0,45.82-37.15,82.97-82.97,82.97h-12.64c-54.58,0-98.83-44.25-98.83-98.84v-26.7c0-54.59,44.25-98.84,98.83-98.84h12.64c42.01,0,76.74,31.24,82.21,71.75h-43.53c-1.97-8.24-5.6-14.91-11.78-20.3-9.1-7.94-19.74-12.3-32.25-12.3-35.16,0-59.9,24.75-59.9,57.83v27.57c0,33.08,26.82,59.9,59.9,59.9,25.01,0,45.29-20.27,45.29-45.29v-.3h-45.04v-36h88.07Z" fill="#014e9c"/><rect x="639.12" y="136.96" width="40.89" height="162.67" fill="#014e9c"/><polygon points="879.41 121.67 879.41 172.82 970.08 172.82 970.08 212.45 879.41 212.45 879.41 259.34 980.16 259.34 980.16 299.24 836.97 299.24 836.97 82.82 980.16 82.82 980.16 121.67 879.41 121.67" fill="#014e9c"/><path d="M776.1,171.93v86.77c0,2.87,2.33,5.19,5.19,5.19h25.83v35.74h-39.75c-20.27,0-36.7-16.43-36.7-36.69v-91.01h-24.96v-34.96h24.96v-40.89h45.43v40.89h31.02v34.96h-31.02Z" fill="#014e9c"/><circle cx="659.56" cy="91.45" r="24.89" fill="#014e9c"/><path d="M1432.93,253.41l40.69-.15c-5.45,15.11-14.06,26.62-25.81,34.52-11.76,7.9-26.47,11.85-44.13,11.85-27.96,0-48.65-8.88-62.07-26.65-10.6-14.23-15.9-32.19-15.9-53.88,0-25.91,6.96-46.2,20.89-60.87,13.93-14.67,31.54-22.01,52.84-22.01,23.92,0,42.79,7.68,56.62,23.04,13.83,15.36,19.36,40.37,18.76,72.07h-105.51c.3,12.27,3.73,20.33,10.29,27.15,6.56,6.82,14.74,10.23,24.53,10.23,16.24,0,26.48-7.45,28.8-15.31Zm3.72-48.88c-.3-11.97-3.48-20.07-9.54-26.31-6.06-6.23-14.42-9.11-23.1-9.11-9.29,0-19.96,3.05-26.01,9.63-6.06,6.58-9.03,14.51-8.93,25.79h67.59Z" fill="#014e9c"/><path d="M1300.82,187.04h-36.67s-4.22-20.15-27.11-20.15c-16,0-22.89,9.19-22.89,15.11,0,6.52,.74,18.44,28.37,20.67s59.63,14,61.19,45.11-16,56.22-66.67,56.22-69.11-27.78-69.11-50.67h40.67s8.56,17.41,28.22,19.51c17.11,1.83,25.12-6.23,26-14.73,.78-7.56-1.56-21.67-40.22-23.67-38.67-2-51.11-26.81-51.11-47.41s14-52.59,65.33-52.59,64,31.63,64,52.59Z" fill="#014e9c"/><path d="M1126.82,151.95c-14.81-15.7-44.52-16.81-53.26-16.81s-25.54-1.04-43.41,11.7c-20.15,14.37-22.67,38.93-22.67,38.93h39.18s4.74-15.56,26.67-15.56,27.63,13,27.63,19.52v11.89s-42.15-5.66-76.15,13.89c-34,19.56-26,55.9-18.3,64.93,9.89,11.59,23.4,20.29,46.96,20.29s37.78-9.07,47.48-30.66v28.29h42.44s.4-80.22,0-106.96c-.16-10.7-.68-22.59-16.59-39.45Zm-29.92,99.07c-5.09,10.01-12.85,15.81-24.33,18.42-9.46,2.15-22.01,1.21-26.3-7.49-5.37-10.89-.2-20.89,7.92-26.27,10.99-7.29,26.89-8.73,31.75-8.73h15.04s.93,14.25-4.07,24.07Z" fill="#014e9c"/></g></svg>